<?xml version="1.0" encoding="utf-8"?>
<!-- Generator: Adobe Illustrator 28.0.0, SVG Export Plug-In . SVG Version: 6.00 Build 0)  -->
<svg version="1.1" id="Layer_1" xmlns="http://www.w3.org/2000/svg" xmlns:xlink="http://www.w3.org/1999/xlink" x="0px" y="0px"
	 viewBox="0 0 2048 2048" style="enable-background:new 0 0 2048 2048;" xml:space="preserve">
<g id="lBKaml_00000095301253447035933480000004375686383260021401_">
	<g>
		<path d="M1696.7,1109.6c0,156.2,0,312.5-0.1,468.7c0,10.5-0.6,21.3-2.4,31.6c-6.7,36.9-28.1,58.8-66.8,65.2
			c-26,4.3-52.6,5.5-79,7.2c-74.5,4.8-149.1,9.2-223.7,13.6c-63.1,3.8-126.2,7.5-189.4,11.3c-73.1,4.4-146.2,8.9-219.3,13.3
			c-73.4,4.4-146.8,8.9-220.2,12.8c-13.4,0.7-27.1-0.4-40.4-2.3c-26.5-3.9-46.2-19.2-62.2-39.9c-60.5-78.5-121.2-156.8-181.5-235.5
			c-19.8-25.8-37.1-53-43.4-85.7c-1.7-9.2-2.7-18.7-2.8-28c-0.1-280.7-0.2-561.4,0.1-842c0-11.3,1.4-23,4.3-34
			c9.7-35.8,37.7-57.1,77.2-60c113.5-8.3,227-16.6,340.5-25c111.7-8.2,223.5-16.5,335.2-24.7c48.7-3.6,97.4-7,146.1-10.3
			c43.8-2.9,82.3,10.7,117.9,36.2c92.1,65.8,184.8,130.7,277.2,196c3.6,2.5,7,5.4,10.4,8.1c15.4,12.1,22.3,27.7,22.3,47.5
			C1696.5,792.5,1696.7,951,1696.7,1109.6z M1604.9,1116c0-133.3,0-266.6-0.1-399.9c0-7.6-0.5-15.3-1.9-22.8
			c-3.9-21.6-17-31.8-38.9-31.3c-2.4,0.1-4.7,0.1-7.1,0.3c-40.8,2.4-81.6,4.7-122.5,7.1c-135.7,8-271.3,16.1-407,24
			c-114.2,6.7-228.5,13.2-342.7,19.9c-26.5,1.5-39,12.8-43,38.8c-0.8,5.2-0.9,10.5-0.9,15.8c0,267.5,0,534.9,0,802.4
			c0,6.4,0.6,12.9,1.7,19.3c3.4,19.6,15.2,32.4,34.9,36.1c10.6,2,21.7,2.6,32.4,2.1c71.4-3.8,142.7-8.1,214.1-12.2
			c86.3-4.9,172.7-9.8,259-14.8c100.1-5.8,200.3-11.5,300.4-17.4c25.8-1.5,51.7-2.7,77.5-5.3c25.1-2.5,39-17,42.3-42.1
			c1.1-8.1,1.6-16.4,1.6-24.6C1604.9,1379.7,1604.9,1247.9,1604.9,1116z M683.5,619.7c30.6-2,53.2-3.6,75.8-5
			c127.7-7.7,255.4-15.4,383.1-23c117.4-7.1,234.9-14.1,352.3-21.3c4.2-0.3,8.2-2.7,12.4-4.2c-2.4-4.2-4.8-8.4-7.4-12.5
			c-0.7-1.2-2.3-1.8-3.5-2.7c-44.5-32.2-89.3-64.2-133.5-96.8c-31.8-23.4-67.2-32.8-106.2-30c-43.7,3.1-87.4,6.6-131.1,9.8
			c-100.9,7.3-201.8,14.6-302.7,21.9c-95.9,7-191.8,13.9-287.8,21c-12,0.9-24.2,1.7-35.7,4.6c-5.4,1.3-11.5,6.6-13.8,11.6
			c-3.2,6.8,3.1,11.6,8.3,15.7c33.2,26.3,67,51.8,99.2,79.2C621.8,612.6,653.8,623.9,683.5,619.7z"/>
	</g>
</g>
<path d="M1026.3,1307c0.6,23.5-3.2,71,15.6,88.2c6.4,5.8,15.8,8,26.3,6.1c24.6-4.5,48.5-5.8,73.6-8.4c32-6,61.8-18.9,92.9-28.4
	c31.7-8.8,78-12.6,100.5-38.7c23.1-26.8,22.6-73.1,22-106.7c-0.2-10.8-0.6-22.1-2.1-32.8c-1.5-11-3.3-22.2-4.9-33.1
	c-3.9-25.8,43.7,2.8,49.4,5.9c17.8,9.7,54.5,21.5,60.1,44c1.2,4.9,1.7,9,1.6,12.1c-0.4,13-1.9,25.9-3.7,38.8
	c-2.6,16-4.6,32.1-5.8,48c-1.3,17-1.1,34.5-1.2,51.6c-0.2,17-0.4,34.2-1.7,51.2c-2.5,33.7-25.2,49.9-56.2,57.4
	c-15.2,3.7-30.8,5.9-46.2,7.8c-27.2,3.5-54.5,2.1-81.9,4.4c-29.7,5.1-58.8,13-88.2,19.4c-59.3,11-123.2,6.5-183.4,7.1
	c-30.5,0.2-60.9,2.1-91.3,4.2c-10.5,0.1-20.9,0.7-31.4,1.4c-11.6,0.7-23.3,1.2-34.8,1.4c-23.3,0.4-47.4-8.8-47.9-35.3
	c-0.4-21.2,15.5-31.6,35.3-31.4c6,0.1,15.2,1.1,27.3,3.2c12.1,2.2,21.3,3.2,27.3,3.2c42.7,0.1,58.2-35.5,58-73.5
	c0-65.5,0-131,0-196.5c0-64.5,6.8-133.3-3.6-196.9c-6.4-32.2-30.5-75-68.5-73.7c-8.2,0.3-14.5,1.4-18.4,2.6
	c-8.7,2.7-17.8,3.5-25,3.6c-8.5,0.2-16.1-2.9-22.6-9.1c-6.4-6.2-9.7-13.9-9.8-23c-0.2-23.2,20.5-34.4,41.3-35.2
	c3.3-0.1,7.3,0,12,0.4c13.9,1.3,27.8,2.5,41.7,3.8c24.8,2.3,49.4,4.4,74.2,2.2c35.9-3.2,71.4-10.4,106.8-17.3
	c23.6-4.6,47.2-9.2,70.9-12.7c6.9-1,11.9-1.3,15.6-1.3c23.4-0.2,45.9,7.6,43.6,34.9c-0.8,9.1-5.7,21.3-11.6,28.3
	c-5.3,6.3-15.8,12.4-24.4,12.4c-9.9,0-20.9-1.3-30.2-3.1c-5.4-1.1-14.6-1.8-27.8-0.9c-50.5,3.5-72.9,38.7-69.4,86.6
	C1036,1088.4,1025.4,1197.9,1026.3,1307z"/>
</svg>
